# xmcd
#
# Track frame offsets:
#	150
#	16157
#	35307
#	64233
#	83398
#	102554
#	124533
#	140301
#	161935
#	181034
#
# Disc length: 2688 seconds
#
# Revision: 0
# Processed by: cddbd v1.5PL3 Copyright (c) Steve Scherf et al.
# Submitted via: dBpowerAMP V4.0
#
DISCID=750a7e0a
DTITLE=The Eagles - Their greatest Hits
DYEAR=1900
DGENRE=
TTITLE0=Take it easy
TTITLE1=Witchy woman
TTITLE2=Lyin' Eyes
TTITLE3=Already gone
TTITLE4=Desperado
TTITLE5=One of these nights
TTITLE6=Tequila Sunrise
TTITLE7=Take it to the limit
TTITLE8=Peaceful, easy feeling
TTITLE9=Best of my love
EXTD=
EXTT0=
EXTT1=
EXTT2=
EXTT3=
EXTT4=
EXTT5=
EXTT6=
EXTT7=
EXTT8=
EXTT9=
PLAYORDER=
